#!OML:ASF I:\Actors\actors\Patient Classification 2\Patient 1\Session 1\actor1.ASF
:FULLY-SPECIFIED
:DEGREES
110
root -0.636088 17.9516 6.21474 -2.07285 -10.5532 -0.847796
lowerback 8.96143 -2.85953 -1.74014
upperback -4.1781 -4.01969 0.540681
thorax -9.32272 -1.82211 2.22582
lowerneck -19.565 4.08716 3.32206
upperneck 33.1462 6.88571 -5.67856
head 15.2101 2.48023 -1.67743
rclavicle -2.0304e-014 -3.8763e-015
rhumerus 67.5317 -20.9057 -42.7198
rradius 98.7509
rwrist -16.327
rhand -24.9014 -13.9804
rfingers 7.12502
rthumb 1.6068 -43.9541
lclavicle -2.0304e-014 -3.8763e-015
lhumerus 70.8657 -4.48844 57.2387
lradius 95.1038
lwrist 25.9648
lhand -26.059 -53.7695
lfingers 7.12502
lthumb 0.488788 -23.7903
rfemur 20.1972 7.14351 14.6508
rtibia -18.8667
rfoot -5.99651 -11.9155
rtoes 0.160296
lfemur 22.1792 -1.05897 -14.7517
ltibia -12.9831
lfoot -9.0694 20.1892
ltoes -14.3867
111
root -0.651448 17.9688 6.14049 -1.84789 -9.79567 -0.921138
lowerback 9.91058 -2.75807 -2.27665
upperback -3.91292 -3.9801 0.435686
thorax -9.56466 -1.76702 2.45571
lowerneck -19.5002 3.89028 3.10889
upperneck 33.1403 6.56642 -5.39904
head 15.1478 2.36078 -1.58449
rclavicle 1.98909e-014 -8.74653e-015
rhumerus 67.8164 -20.4662 -43.4303
rradius 98.9189
rwrist -16.2699
rhand -24.4927 -13.9108
rfingers 7.12502
rthumb 2.00148 -43.8812
lclavicle 1.98909e-014 -8.74653e-015
lhumerus 70.8064 -4.33268 57.3428
lradius 95.4864
lwrist 26.5182
lhand -25.593 -53.4359
lfingers 7.12502
lthumb 0.938814 -23.4582
rfemur 19.6904 6.62142 14.775
rtibia -18.5792
rfoot -6.12595 -12.15
rtoes 0.69034
lfemur 21.6824 -1.40946 -14.5162
ltibia -13.34
lfoot -8.36906 19.952
ltoes -14.3794
112
root -0.666883 17.9872 6.05724 -1.60126 -9.01953 -1.05208
lowerback 10.9113 -2.62263 -2.76579
upperback -3.54325 -3.89508 0.359628
thorax -9.72541 -1.69471 2.68
lowerneck -19.6199 3.61666 2.81162
upperneck 33.0385 6.14751 -5.09788
head 15.0754 2.19004 -1.48244
rclavicle 5.72748e-014 1.2921e-014
rhumerus 67.8439 -20.015 -44.103
rradius 99.1552
rwrist -16.6208
rhand -24.4391 -13.6983
rfingers 7.12502
rthumb 2.05329 -43.6681
lclavicle 5.72748e-014 1.2921e-014
lhumerus 70.7762 -4.41611 57.5023
lradius 95.9867
lwrist 26.9825
lhand -25.1284 -53.036
lfingers 7.12502
lthumb 1.38758 -23.0608
rfemur 19.1432 6.04619 14.9617
rtibia -18.3214
rfoot -6.17812 -12.4024
rtoes 0.990456
lfemur 21.1138 -1.74843 -14.2118
ltibia -13.6852
lfoot -7.66157 19.6902
ltoes -14.5829
113
root -0.682821 18.0092 5.96153 -1.29417 -8.20463 -1.16938
lowerback 11.9729 -2.47223 -3.27036
upperback -3.0645 -3.80162 0.281594
thorax -9.80055 -1.62171 2.90715
lowerneck -20.0855 3.30113 2.33694
upperneck 32.805 5.64944 -4.59209
head 15.005 1.98985 -1.27293
rclavicle 4.22417e-014 -1.23246e-014
rhumerus 67.7731 -19.5909 -44.8188
rradius 99.3621
rwrist -17.2961
rhand -24.183 -13.7939
rfingers 7.12502
rthumb 2.3006 -43.7612
lclavicle 4.22417e-014 -1.23246e-014
lhumerus 70.7513 -4.66214 57.6623
lradius 96.5643
lwrist 27.3406
lhand -24.6454 -52.5451
lfingers 7.12502
lthumb 1.85408 -22.5734
rfemur 18.4922 5.43473 15.1382
rtibia -18.0826
rfoot -6.24496 -12.7065
rtoes 1.27754
lfemur 20.4062 -2.01816 -13.8933
ltibia -14.0383
lfoot -6.76347 19.3907
ltoes -15.0846
114
root -0.699168 18.0374 5.8555 -0.881036 -7.34554 -1.26154
lowerback 13.0373 -2.33789 -3.81808
upperback -2.53402 -3.7441 0.218121
thorax -9.81222 -1.56716 3.17813
lowerneck -20.6025 2.9793 1.76413
upperneck 32.1692 5.10581 -3.92308
head 14.757 1.7902 -0.984
rclavicle 2.46182e-014 -6.75868e-015
rhumerus 67.6821 -18.7623 -46.0337
rradius 99.7521
rwrist -17.9448
rhand -23.678 -14.3213
rfingers 7.12502
rthumb 2.7883 -44.2828
lclavicle 2.46182e-014 -6.75868e-015
lhumerus 70.5634 -5.04691 57.8438
lradius 97.0977
lwrist 27.6199
lhand -23.9964 -52.0945
lfingers 7.12502
lthumb 2.48081 -22.1292
rfemur 17.6995 4.79721 15.2887
rtibia -17.8601
rfoot -6.26144 -13.0978
rtoes 1.61065
lfemur 19.5256 -2.28201 -13.5841
ltibia -14.4143
lfoot -5.77543 19.0632
ltoes -15.4573
115
root -0.716037 18.07 5.74094 -0.321896 -6.48675 -1.46415
lowerback 13.9812 -2.21804 -4.26578
upperback -1.92871 -3.68333 0.226991
thorax -9.66961 -1.52325 3.45983
lowerneck -21.0562 2.66583 1.21686
upperneck 31.0035 4.56486 -3.28257
head 14.274 1.60277 -0.712898
rclavicle 1.45361e-015 7.95139e-016
rhumerus 67.5418 -17.2951 -47.8833
rradius 100.464
rwrist -18.2735
rhand -23.2104 -14.9783
rfingers 7.12502
rthumb 3.23988 -44.9334
lclavicle 1.45361e-015 7.95139e-016
lhumerus 70.2148 -5.58537 58.1165
lradius 97.5806
lwrist 27.889
lhand -23.171 -51.5764
lfingers 7.12502
lthumb 3.27792 -21.6219
rfemur 16.7346 4.13247 15.5635
rtibia -17.6603
rfoot -6.11355 -13.5433
rtoes 1.57595
lfemur 18.4505 -2.44599 -13.123
ltibia -14.7873
lfoot -4.745 18.6476
ltoes -15.6784
